<?xml version="1.0" encoding="UTF-8" standalone="no"?>
<svg
   width="100%"
   height="100%"
   viewBox="0 0 256 256"
   version="1.1"
   xml:space="preserve"
   style="fill-rule:evenodd;clip-rule:evenodd;stroke-linecap:round;stroke-linejoin:round;stroke-miterlimit:2;"
   id="svg3"
   xmlns="http://www.w3.org/2000/svg"
   xmlns:svg="http://www.w3.org/2000/svg"><defs
     id="defs3" /><path
     id="path4"
     style="baseline-shift:baseline;clip-rule:nonzero;display:inline;overflow:visible;vector-effect:none;fill:#767676;fill-rule:nonzero;stroke-linecap:butt;stroke-linejoin:miter;enable-background:accumulate;stop-color:#000000"
     d="M 141.23633 30.107422 L 56.462891 43.783203 L 96.964844 67.662109 C 128.30793 60.428971 159.65102 53.195887 190.99414 45.962891 L 141.23633 30.107422 z " /><path
     id="path6"
     style="baseline-shift:baseline;clip-rule:nonzero;display:inline;overflow:visible;vector-effect:none;fill:#525252;fill-rule:nonzero;stroke-linecap:butt;stroke-linejoin:miter;enable-background:accumulate;stop-color:#000000"
     d="M 34.794922 60.876953 L 45.609375 159.875 C 59.060547 174.83984 72.511719 189.80469 85.962891 204.76953 L 82.220703 88.839844 L 34.794922 60.876953 z " /><path
     id="path8"
     style="baseline-shift:baseline;clip-rule:nonzero;display:inline;overflow:visible;vector-effect:none;fill:#9a9a9a;fill-rule:nonzero;stroke-linecap:butt;stroke-linejoin:miter;enable-background:accumulate;stop-color:#000000"
     d="M 224.62891 64.607422 C 185.77078 73.574613 146.91267 82.541909 108.05469 91.509766 C 109.44076 134.4681 110.82682 177.42644 112.21289 220.38477 L 210.87109 178.34766 L 224.62891 64.607422 z " /><path
     id="path9"
     style="baseline-shift:baseline;clip-rule:nonzero;display:inline;overflow:visible;vector-effect:none;fill-rule:nonzero;stroke-linecap:butt;stroke-linejoin:miter;enable-background:accumulate;stop-color:#000000"
     d="M 141.66797,4.0644531 C 99.771259,10.669673 57.878233,17.441758 16.029297,24.324221 7.6892487,26.151521 4.9382449,35.610104 6.9612971,43.022476 11.468339,84.278657 15.97538,125.53484 20.482422,166.79102 c 3.45318,10.19177 12.623221,16.66775 19.114587,24.88478 17.593428,19.31496 34.703657,39.12847 52.59635,58.13475 8.358371,6.50413 17.542371,-1.0884 25.675451,-3.86551 36.6414,-15.6132 73.2828,-31.2264 109.9242,-46.8396 10.25228,-5.59468 7.82614,-17.96967 9.82782,-27.6473 4.89799,-41.2763 10.16962,-82.522693 14.83632,-123.817511 C 252.56339,39.37231 244.55326,35.19948 237.51307,33.778775 207.04973,24.072569 176.58639,14.366362 146.12305,4.6601562 Z m -0.43164,26.0429689 c 16.58594,5.285156 33.17187,10.570313 49.75781,15.855469 -31.34312,7.232996 -62.68621,14.46608 -94.029296,21.699218 C 83.464193,59.702474 69.963542,51.742838 56.462891,43.783203 84.720704,39.224609 112.97852,34.666016 141.23633,30.107422 Z M 34.794922,60.876953 C 50.603516,70.197917 66.412109,79.51888 82.220703,88.839844 83.468099,127.48307 84.715495,166.1263 85.962891,204.76953 72.511719,189.80469 59.060547,174.83984 45.609375,159.875 42.004557,126.87565 38.39974,93.876302 34.794922,60.876953 Z m 189.833988,3.730469 c -4.58594,37.913408 -9.17188,75.826828 -13.75782,113.740238 -32.88607,14.01237 -65.77213,28.02474 -98.6582,42.03711 -1.38607,-42.95833 -2.77213,-85.91667 -4.1582,-128.875004 38.85798,-8.967857 77.71609,-17.935153 116.57422,-26.902344 z" /></svg>
