<?xml version="1.0" encoding="UTF-8" standalone="no"?>
<svg
   width="100%"
   height="100%"
   viewBox="0 0 256 256"
   version="1.1"
   xml:space="preserve"
   style="fill-rule:evenodd;clip-rule:evenodd;stroke-linecap:round;stroke-linejoin:round;stroke-miterlimit:2;"
   id="svg3"
   xmlns="http://www.w3.org/2000/svg"
   xmlns:svg="http://www.w3.org/2000/svg"><defs
     id="defs3" /><path
     id="path9"
     style="baseline-shift:baseline;clip-rule:nonzero;display:inline;overflow:visible;vector-effect:none;fill-rule:nonzero;stroke-linecap:butt;stroke-linejoin:miter;enable-background:accumulate;stop-color:#000000"
     d="M 141.66797 4.0644531 C 99.771258 10.669673 57.878233 17.441756 16.029297 24.324219 C 7.6892486 26.151519 4.9378853 35.611065 6.9609375 43.023438 L 20.482422 166.79102 C 23.935602 176.98279 33.10629 183.45875 39.597656 191.67578 C 57.191084 210.99074 74.300666 230.80427 92.193359 249.81055 C 100.55173 256.31468 109.73606 248.72242 117.86914 245.94531 L 227.79297 199.10547 C 238.04525 193.51079 235.61941 181.13661 237.62109 171.45898 C 242.51908 130.18268 247.79033 88.935443 252.45703 47.640625 C 252.56327 39.372306 244.55386 35.200002 237.51367 33.779297 L 146.12305 4.6601562 L 141.66797 4.0644531 z M 141.23633 30.107422 L 190.99414 45.962891 C 159.65102 53.195887 128.30793 60.428971 96.964844 67.662109 L 56.462891 43.783203 L 141.23633 30.107422 z M 224.62891 64.607422 L 210.87109 178.34766 L 112.21289 220.38477 C 110.82682 177.42644 109.44076 134.4681 108.05469 91.509766 C 146.91267 82.541909 185.77078 73.574613 224.62891 64.607422 z " /></svg>
